<svg id="visual" viewBox="0 0 900 900" width="900" height="900" xmlns="http://www.w3.org/2000/svg" xmlns:xlink="http://www.w3.org/1999/xlink" version="1.1"><rect x="0" y="0" width="900" height="900" fill="#001033"></rect><path d="M0 280L6 267.7C12 255.3 24 230.7 36 230.8C48 231 60 256 72 245C84 234 96 187 108 183.3C120 179.7 132 219.3 144 224.8C156 230.3 168 201.7 180 185.2C192 168.7 204 164.3 216 182.8C228 201.3 240 242.7 252 258.8C264 275 276 266 288 243.2C300 220.3 312 183.7 324 171.2C336 158.7 348 170.3 360 190.7C372 211 384 240 396 253.8C408 267.7 420 266.3 432 265.8C444 265.3 456 265.7 468 245.5C480 225.3 492 184.7 504 189.2C516 193.7 528 243.3 540 250.3C552 257.3 564 221.7 576 202.2C588 182.7 600 179.3 612 197C624 214.7 636 253.3 648 254C660 254.7 672 217.3 684 203C696 188.7 708 197.3 720 197.5C732 197.7 744 189.3 756 181C768 172.7 780 164.3 792 181.2C804 198 816 240 828 256.2C840 272.3 852 262.7 864 242.5C876 222.3 888 191.7 894 176.3L900 161L900 0L894 0C888 0 876 0 864 0C852 0 840 0 828 0C816 0 804 0 792 0C780 0 768 0 756 0C744 0 732 0 720 0C708 0 696 0 684 0C672 0 660 0 648 0C636 0 624 0 612 0C600 0 588 0 576 0C564 0 552 0 540 0C528 0 516 0 504 0C492 0 480 0 468 0C456 0 444 0 432 0C420 0 408 0 396 0C384 0 372 0 360 0C348 0 336 0 324 0C312 0 300 0 288 0C276 0 264 0 252 0C240 0 228 0 216 0C204 0 192 0 180 0C168 0 156 0 144 0C132 0 120 0 108 0C96 0 84 0 72 0C60 0 48 0 36 0C24 0 12 0 6 0L0 0Z" fill="#0066FF" stroke-linecap="round" stroke-linejoin="miter"></path></svg>